Coordinates
version=1
nRows=10
nColumns=40
inDegrees=yes

Units are S.I. units (second, meters, Newtons, ...)
Angles are in degrees.

endheader
time	pelvis_tilt	pelvis_list	pelvis_rotation	pelvis_tx	pelvis_ty	pelvis_tz	hip_flexion_r	hip_adduction_r	hip_rotation_r	knee_angle_r	knee_angle_r_beta	ankle_angle_r	subtalar_angle_r	mtp_angle_r	hip_flexion_l	hip_adduction_l	hip_rotation_l	knee_angle_l	knee_angle_l_beta	ankle_angle_l	subtalar_angle_l	mtp_angle_l	lumbar_extension	lumbar_bending	lumbar_rotation	arm_flex_r	arm_add_r	arm_rot_r	elbow_flex_r	pro_sup_r	wrist_flex_r	wrist_dev_r	arm_flex_l	arm_add_l	arm_rot_l	elbow_flex_l	pro_sup_l	wrist_flex_l	wrist_dev_l
     12.12500000	     -4.93054568	     -5.11225288	     -3.66746956	      1.03282963	      0.93311482	      0.40161130	     38.31665672	     -6.78064230	     -8.04646314	     59.07826707	     59.07826707	     -3.47536456	    -17.52302951	      6.20365356	     10.15876224	     -5.44561508	     -8.38274073	     19.96680551	     19.96680551	     15.29867319	    -11.23105968	      0.96084799	    -13.29283423	      6.05435125	      2.60210971	      6.57629665	    -13.53024786	     -3.89526542	     43.69114208	     46.30198699	      0.00000000	      0.00000000	     12.25069749	    -16.05847248	     -0.92863450	     53.79230875	     46.65931916	      0.00000000	      0.00000000
     12.13657143	     -4.98121229	     -5.19483811	     -3.78992458	      1.03186654	      0.93332401	      0.40211383	     38.62026890	     -6.19898053	     -8.09537155	     55.70090660	     55.70090660	     -4.41630506	    -16.66209964	      2.55338539	      9.37066665	     -5.58351005	     -8.87154873	     19.39770296	     19.39770296	     15.38931175	    -10.56022262	      0.24276517	    -13.31465258	      6.16236515	      2.17387818	      5.88580686	    -13.48860716	     -3.72709892	     38.58155918	     46.43844658	      0.00000000	      0.00000000	     13.40040292	    -17.07386583	     -0.57508147	     55.93609634	     46.69667303	      0.00000000	      0.00000000
     12.14814286	     -4.99543605	     -5.22063242	     -3.86630115	      1.03100089	      0.93354479	      0.40247199	     38.80371390	     -5.72540917	     -8.16045214	     52.22301788	     52.22301788	     -4.27562796	    -15.12039761	      2.21555832	      8.51141533	     -5.57725818	     -9.11321696	     18.74929141	     18.74929141	     15.52138029	    -10.17976204	      0.17359942	    -13.44942005	      6.28651062	      2.30669225	      3.64966517	    -13.90132841	     -3.65407384	     36.82957631	     46.47806305	      0.00000000	      0.00000000	     15.08304142	    -17.42063859	     -0.91884308	     57.54885779	     46.76517607	      0.00000000	      0.00000000
     12.15971429	     -5.01406191	     -5.13890128	     -3.91520425	      1.03035686	      0.93347654	      0.40284946	     38.81937172	     -5.40680638	     -8.26992850	     48.49560582	     48.49560582	     -4.20669600	    -13.52181540	      1.53464553	      7.64873673	     -5.47237062	     -9.45448907	     18.10460876	     18.10460876	     15.67633666	     -9.60743969	     -0.11757434	    -13.52808206	      6.24792544	      2.47088503	      1.53731324	    -14.19362659	     -3.64129710	     34.62557635	     46.53813958	      0.00000000	      0.00000000	     16.68299230	    -17.81446946	     -1.03855782	     59.57913382	     46.82341815	      0.00000000	      0.00000000
     12.17128571	     -5.10133240	     -5.04544433	     -3.88624773	      1.02985360	      0.93314799	      0.40325317	     38.56538213	     -5.11357717	     -8.55104092	     44.23760218	     44.23760218	     -4.86307097	    -12.41337066	     -1.07656719	      6.85932602	     -5.36683692	     -9.78954655	     17.42941388	     17.42941388	     15.61148287	     -9.00899758	     -1.04649306	    -13.44565619	      6.22524555	      1.87695797	      0.41577247	    -14.06665389	     -4.33489258	     31.01710155	     46.67323618	      0.00000000	      0.00000000	     17.35130345	    -18.94924901	     -0.68019700	     62.67921471	     46.89128251	      0.00000000	      0.00000000
     12.18285714	     -5.15838753	     -4.93215938	     -3.82099139	      1.02959276	      0.93266771	      0.40363278	     38.17427299	     -4.87935165	     -8.93779780	     40.00403371	     40.00403371	     -4.54308818	    -10.78391743	     -0.82065621	      6.02558758	     -5.20033756	     -9.94666467	     16.76647504	     16.76647504	     15.82777869	     -8.52594404	     -1.19761049	    -13.36435557	      6.22279930	      1.80439134	     -1.88477486	    -14.33472167	     -4.40636060	     29.86429343	     46.69993807	      0.00000000	      0.00000000	     18.84220232	    -19.23362617	     -1.05385879	     64.22428128	     46.95886706	      0.00000000	      0.00000000
     12.19442857	     -5.28544607	     -4.74174801	     -3.71358976	      1.02951194	      0.93178000	      0.40408989	     37.70255421	     -4.69126859	     -9.32436543	     35.68572560	     35.68572560	     -4.18514165	     -9.30467907	     -0.38471048	      5.27027264	     -4.96463751	    -10.12443733	     16.11012526	     16.11012526	     16.05327309	     -7.98065864	     -1.41808785	    -13.13866122	      6.15919193	      1.62179204	     -4.13212858	    -14.45617446	     -4.48466048	     28.86197282	     46.72358530	      0.00000000	      0.00000000	     20.22662803	    -19.64153468	     -1.33466507	     65.82951258	     47.01763664	      0.00000000	      0.00000000
     12.20600000	     -5.12189209	     -4.48629503	     -3.64618999	      1.02992609	      0.93097340	      0.40467402	     36.77761190	     -4.60087121	     -9.91723755	     31.42227063	     31.42227063	     -3.75256133	     -7.48767024	      0.17311720	      4.05492623	     -4.64618961	    -10.49988426	     15.27422638	     15.27422638	     16.29072321	     -7.13836514	     -1.85895812	    -13.22239403	      5.91455876	      1.82774099	     -6.63643573	    -14.59827943	     -4.71493974	     27.84628018	     46.75405272	      0.00000000	      0.00000000	     21.57187450	    -19.85937362	     -1.44953915	     68.41061407	     47.08309406	      0.00000000	      0.00000000
     12.21757143	     -4.97941958	     -4.22182641	     -3.49693487	      1.03062893	      0.92979179	      0.40528539	     35.79794931	     -4.53002740	    -10.61184640	     27.39605675	     27.39605675	     -3.22566423	     -5.85271971	      1.13216343	      2.86687533	     -4.32343226	    -10.80567670	     14.45859207	     14.45859207	     16.52535767	     -6.25951482	     -2.42593168	    -13.30403013	      5.71246477	      1.82289332	     -9.08734873	    -14.69388107	     -5.08618809	     27.16078937	     46.78136123	      0.00000000	      0.00000000	     22.60370495	    -20.22010897	     -1.47222710	     71.02000437	     47.14573609	      0.00000000	      0.00000000
     12.22914286	     -4.94615794	     -3.90903249	     -3.38339388	      1.03145733	      0.92807045	      0.40619736	     35.02715046	     -4.47034496	    -11.25702420	     23.95337473	     23.95337473	     -2.09344691	     -4.08284966	      3.93044429	      1.80357742	     -3.99446267	    -11.25425898	     13.66115974	     13.66115974	     16.56768068	     -5.35712037	     -3.75460849	    -13.13128245	      5.39604214	      1.47653891	    -11.53113768	    -14.50834532	     -6.44106843	     27.67928849	     46.80887316	      0.00000000	      0.00000000	     23.07456282	    -21.10324774	     -1.30602532	     74.69608814	     47.24291580	      0.00000000	      0.00000000
